<svg width="107" height="118" viewBox="0 0 107 118" fill="none" xmlns="http://www.w3.org/2000/svg">
<path d="M96.6926 23.0486L62.3621 3.23182C56.7823 0.0160602 49.8283 0.0160602 44.2485 3.23182L9.89052 23.0486C4.31078 26.2643 0.820007 32.2836 0.820007 38.7426V78.4036C0.820007 84.8626 4.28329 90.8544 9.89052 94.0976L44.221 113.914C47.0246 115.536 50.1581 116.333 53.2915 116.333C56.425 116.333 59.5584 115.536 62.3621 113.914L96.6926 94.0976C102.272 90.8818 105.763 84.8626 105.763 78.4036V38.7426C105.763 32.2836 102.3 26.2918 96.6926 23.0486Z" fill="#EE004E" stroke="#EE004E" stroke-width="1.64" stroke-miterlimit="10"/>
<path opacity="0.6" d="M87.1546 59.3289L72.9716 51.7155C72.4769 51.4407 71.8722 51.4682 71.4049 51.7155L67.062 54.2167C65.9626 54.8488 65.9901 56.443 67.117 57.0476L76.1051 61.8575C77.232 62.4622 77.2595 64.0563 76.16 64.6885L57.4143 75.5176C55.6002 76.5621 53.3463 76.5621 51.5597 75.5176C50.8176 75.0779 36.9644 66.9148 29.0759 62.4347C27.9764 61.8026 27.9764 60.2634 29.0759 59.6312L37.6791 54.6564C38.7511 54.0243 38.7511 52.4851 37.6791 51.8529C36.1948 51.0009 34.738 50.1489 33.4187 49.3793C32.9239 49.1044 32.2918 49.1044 31.797 49.3793L20.6925 55.8108C18.9334 56.8278 17.0918 58.8342 17.1742 61.3628C17.2017 62.5721 17.7515 64.8534 20.9124 66.4475C23.7985 67.8768 39.7406 77.2217 47.8216 81.9766C49.8831 83.1585 52.1919 83.7632 54.5008 83.7632C56.8096 83.7632 59.1185 83.1585 61.18 81.9766L87.3195 66.8873C88.6938 66.0902 89.5184 64.606 89.4909 63.0394C89.4909 61.4452 88.5839 60.016 87.1821 59.2464L87.1546 59.3289Z" fill="#141624"/>
<path d="M54.006 66.1178C51.3948 66.1178 48.7561 65.4306 46.4197 64.0839C38.9984 59.7137 26.5471 52.4302 24.4581 51.3857C19.7579 49.022 19.1258 45.1741 19.0983 43.6074C18.9883 39.6771 21.5995 36.7362 24.0733 35.3069L46.4197 22.3889C50.0205 20.3276 54.6382 21.6743 56.5073 25.4398C58.2389 28.9029 56.7546 33.1356 53.4013 35.0871L39.4107 43.1677V43.2227C45.4302 46.7133 52.4668 50.8635 53.7036 51.5781C53.8686 51.6606 54.1159 51.6606 54.3358 51.5506L76.6823 38.6601C80.283 36.5987 84.9007 37.9455 86.7698 41.711C88.5014 45.1741 87.0172 49.4068 83.6638 51.3582L61.5648 64.1113C59.2284 65.4581 56.5897 66.1452 53.9785 66.1452L54.006 66.1178Z" fill="white"/>
<path d="M83.8011 80.5475C83.1415 80.5475 82.5368 80.2177 82.1795 79.613C81.6572 78.706 81.9596 77.5791 82.8666 77.0569L84.4883 76.1224C85.3954 75.6002 86.5223 75.9025 87.0445 76.8095C87.5668 77.7165 87.2644 78.8434 86.3574 79.3656L84.7357 80.3001C84.4333 80.465 84.131 80.5475 83.8011 80.5475Z" fill="#141624"/>
<path d="M53.0713 96.8462C52.4392 96.8462 51.7795 96.7912 51.1473 96.6813C50.1303 96.5163 49.4431 95.5269 49.6081 94.5099C49.773 93.493 50.735 92.8059 51.7795 92.9708C52.7965 93.1357 53.841 93.1082 54.8305 92.8883C55.8475 92.6409 56.837 93.2731 57.0844 94.2901C57.3042 95.307 56.6995 96.2965 55.6826 96.5438C54.8305 96.7362 53.9509 96.8462 53.0988 96.8462H53.0713ZM43.9184 93.0532C43.5885 93.0532 43.2862 92.9708 42.9838 92.8059L39.6855 90.8819C38.7784 90.3597 38.4761 89.2053 38.9983 88.3258C39.5205 87.4188 40.675 87.1164 41.5545 87.6387L44.8529 89.5626C45.76 90.0848 46.0623 91.2392 45.5401 92.1187C45.1827 92.7234 44.5506 93.0532 43.9184 93.0532ZM62.6641 92.7784C62.0044 92.7784 61.3997 92.4485 61.0424 91.8439C60.5202 90.9369 60.8225 89.81 61.7296 89.2878L65.0279 87.3638C65.935 86.8416 67.0619 87.1439 67.5842 88.0509C68.1064 88.9579 67.8041 90.0848 66.897 90.6071L63.5986 92.531C63.2963 92.6959 62.9939 92.7784 62.6641 92.7784ZM33.3086 86.924C32.9788 86.924 32.6764 86.8416 32.3741 86.6767L29.0757 84.7802C28.1687 84.258 27.8663 83.1311 28.3886 82.2241C28.9108 81.3171 30.0377 81.0147 30.9448 81.537L34.2432 83.4609C35.1502 83.9831 35.4526 85.1375 34.9303 86.017C34.573 86.6217 33.9408 86.9515 33.3086 86.9515V86.924ZM73.2189 86.6492C72.5592 86.6492 71.9545 86.3194 71.5972 85.7147C71.0749 84.8077 71.3773 83.6808 72.2843 83.1586L75.5827 81.2346C76.4898 80.7124 77.6167 81.0147 78.1389 81.9217C78.6612 82.8288 78.3588 83.9556 77.4518 84.4779L74.1534 86.4018C73.8511 86.5667 73.5487 86.6492 73.2189 86.6492Z" fill="#141624"/>
<path d="M22.7813 80.8224C22.4515 80.8224 22.1491 80.7399 21.8468 80.575L20.2251 79.6405C19.318 79.1183 19.0157 77.9914 19.5379 77.0844C20.0602 76.1774 21.1871 75.875 22.0942 76.3973L23.7159 77.3317C24.6229 77.854 24.9253 79.0083 24.403 79.8879C24.0457 80.4925 23.4135 80.8224 22.7813 80.8224Z" fill="#141624"/>
</svg>
